HIERARCHY
ROOT ui
{
	 OFFSET 0 0 0
	 CHANNELS 3 XPosition YPosition Z Position
	 EndSite
	 {
	 OFFSET 0 -1 0
	 }
}
ROOT li
{
	 OFFSET 0 0 0
	 CHANNELS 3 XPosition YPosition Z Position
	 EndSite
	 {
	 OFFSET 0 -1 0
	 }
}
ROOT ul
{
	 OFFSET 0 0 0
	 CHANNELS 3 XPosition YPosition Z Position
	 EndSite
	 {
	 OFFSET 0 -1 0
	 }
}
ROOT ll
{
	 OFFSET 0 0 0
	 CHANNELS 3 XPosition YPosition Z Position
	 EndSite
	 {
	 OFFSET 0 -1 0
	 }
}
ROOT tt
{
	 OFFSET 0 0 0
	 CHANNELS 3 XPosition YPosition Z Position
	 EndSite
	 {
	 OFFSET 0 -1 0
	 }
}
ROOT tb
{
	 OFFSET 0 0 0
	 CHANNELS 3 XPosition YPosition Z Position
	 EndSite
	 {
	 OFFSET 0 -1 0
	 }
}
ROOT td
{
	 OFFSET 0 0 0
	 CHANNELS 3 XPosition YPosition Z Position
	 EndSite
	 {
	 OFFSET 0 -1 0
	 }
}
ROOT v
{
	 OFFSET 0 0 0
	 CHANNELS 3 XPosition YPosition Z Position
	 EndSite
	 {
	 OFFSET 0 -1 0
	 }
}
ROOT bn
{
	 OFFSET 0 0 0
	 CHANNELS 3 XPosition YPosition Z Position
	 EndSite
	 {
	 OFFSET 0 -1 0
	 }
}
MOTION
Frames: 32
Frame Time: 0.002
0.0025775570869445803	-0.0013391309976577758	0		0.3801458740234375	-2.349227294921875	0		-1.12189453125	-0.14311506652832032	0		-1.0238628540039063	-2.443208984375	0		1.3133604736328126	-0.7304674682617187	0		3.1687626953125	-0.29897756958007815	0		4.43590576171875	-0.13962066650390625	0		5.67757275390625	0.06998305511474609	0		-0.13019451904296875	5.92928271484375	0		
0.02471896171569824	-0.004194387912750244	0		0.36543124389648435	-2.343704345703125	0		-1.127748046875	-0.1457213134765625	0		-1.065613525390625	-2.4414541015625	0		1.33355126953125	-0.7302681274414062	0		3.15510302734375	-0.2823909606933594	0		4.42696875	-0.15005415344238282	0		5.67168408203125	0.0645577850341797	0		-0.14528868103027343	5.91879296875	0		
-0.0040713510513305665	-0.0015572320222854614	0		0.38963873291015627	-2.347584716796875	0		-1.0915478515625	-0.14475949096679688	0		-1.03039404296875	-2.444480712890625	0		1.3037100830078125	-0.7345870971679688	0		3.155189208984375	-0.29296096801757815	0		4.41924658203125	-0.14051815795898437	0		5.669880859375	0.06607161712646484	0		-0.14724223327636718	5.92015771484375	0		
-0.012916267395019531	-0.007143033027648926	0		0.37089114379882815	-2.34906201171875	0		-1.169306640625	-0.14168832397460937	0		-1.071088623046875	-2.440774658203125	0		1.3209114990234374	-0.7373988647460937	0		3.127451416015625	-0.2882819519042969	0		4.42339111328125	-0.14712982177734374	0		5.6640341796875	0.06059437561035156	0		-0.14916246032714844	5.92149853515625	0		
0.019400575637817382	-1.6659800708293914E-4	0		0.3692038269042969	-2.347740478515625	0		-1.1171162109375	-0.14793544006347656	0		-1.0977825927734375	-2.44023876953125	0		1.312237060546875	-0.7309864501953125	0		3.137568115234375	-0.30201516723632815	0		4.40865087890625	-0.1455915222167969	0		5.6663408203125	0.06699724578857422	0		-0.1490586395263672	5.92078857421875	0		
-0.002226372003555298	0.008305802345275878	0		0.3736253662109375	-2.33951708984375	0		-1.1207310791015626	-0.13866477966308594	0		-1.0283621826171876	-2.43268798828125	0		1.3266041259765624	-0.724841796875	0		3.182102294921875	-0.27812872314453124	0		4.41507177734375	-0.132306884765625	0		5.67464208984375	0.06829364013671875	0		-0.13579302978515626	5.930912109375	0		
0.018900808334350587	-0.013689598083496094	0		0.3949262084960937	-2.348505859375	0		-1.098394287109375	-0.13969279479980468	0		-1.0739971923828124	-2.43504443359375	0		1.29691552734375	-0.7293099365234375	0		3.1283076171875	-0.292323974609375	0		4.41238671875	-0.13498486328125	0		5.66708447265625	0.078692626953125	0		-0.15264126586914062	5.92328759765625	0		
-0.012517316818237305	0.00478329610824585	0		0.36239199829101565	-2.346015625	0		-1.0999786376953125	-0.13853367614746093	0		-1.036562744140625	-2.43626806640625	0		1.359279296875	-0.7347374877929688	0		3.1337451171875	-0.2891592712402344	0		4.4107998046875	-0.133732177734375	0		5.65735888671875	0.06605027008056641	0		-0.1543325653076172	5.92446337890625	0		
0.00588904619216919	-0.0012920260429382323	0		0.36090505981445314	-2.34488916015625	0		-1.1335380859375	-0.1411159362792969	0		-1.1180150146484376	-2.431378662109375	0		1.2907996826171875	-0.7299378051757812	0		3.132225830078125	-0.28798904418945315	0		4.39727587890625	-0.1324272003173828	0		5.655833984375	0.06726026916503906	0		-0.15595965576171875	5.92458203125	0		
-0.009625210762023925	-0.006096920013427734	0		0.36940267944335936	-2.35192431640625	0		-1.130963134765625	-0.137113525390625	0		-1.0275299072265625	-2.44023779296875	0		1.3113428955078126	-0.7300778198242187	0		3.158841064453125	-0.2801626586914063	0		4.4007412109375	-0.13935984802246093	0		5.66434716796875	0.06529869842529297	0		-0.15749830627441405	5.92563720703125	0		
0.0101080322265625	0.006685731887817382	0		0.3601462707519531	-2.34085302734375	0		-1.176293701171875	-0.1307079315185547	0		-1.1147325439453124	-2.42342041015625	0		1.299988525390625	-0.7269752197265625	0		3.112404541015625	-0.284694580078125	0		4.39443603515625	-0.13027130126953124	0		5.66112939453125	0.083375244140625	0		-0.14286631774902345	5.93546728515625	0		
-0.015342544555664063	-0.0071635680198669435	0		0.35684637451171874	-2.341914306640625	0		-1.1056397705078125	-0.1345088806152344	0		-1.0421036376953126	-2.432239990234375	0		1.308671142578125	-0.72814404296875	0		3.16208056640625	-0.28624533081054687	0		4.40019921875	-0.12238089752197266	0		5.65575537109375	0.07738924407958984	0		-0.15933059692382812	5.92652783203125	0		
0.010425576210021973	-0.007590622901916504	0		0.3546170349121094	-2.344064453125	0		-1.1828460693359375	-0.13193951416015626	0		-1.1232698974609374	-2.427631103515625	0		1.2824383544921876	-0.7290513305664063	0		3.12687353515625	-0.28404833984375	0		4.40085107421875	-0.1345257110595703	0		5.65453369140625	0.07827629089355469	0		-0.1606041259765625	5.92736328125	0		
-0.0176937198638916	-0.005572453022003174	0		0.35148446655273435	-2.34528759765625	0		-1.106067138671875	-0.14095462036132814	0		-1.0464349365234376	-2.43264599609375	0		1.3161749267578124	-0.7426282958984375	0		3.10866796875	-0.2911044006347656	0		4.3937890625	-0.12668196868896484	0		5.65340283203125	0.07907249450683594	0		-0.16079774475097655	5.92610693359375	0		
0.008262541770935059	-0.00616585922241211	0		0.3634357604980469	-2.3477421875	0		-1.1731055908203125	-0.14064720153808594	0		-1.1114404296875	-2.430357666015625	0		1.2732071533203124	-0.7355409545898437	0		3.104676025390625	-0.2863868103027344	0		4.38568798828125	-0.13291839599609376	0		5.658271484375	0.06971804809570313	0		-0.15988525390625	5.9247568359375	0		
0.01743218994140625	0.004320851802825928	0		0.3645386047363281	-2.345175537109375	0		-1.0940069580078124	-0.1378481903076172	0		-1.0323896484375	-2.43355810546875	0		1.30033056640625	-0.7302236938476563	0		3.15185498046875	-0.2752564086914063	0		4.38881884765625	-0.12635369873046876	0		5.66632421875	0.06824116516113281	0		-0.14573347473144532	5.93619384765625	0		
0.009558492660522461	-0.001111387014389038	0		0.3517900085449219	-2.338558349609375	0		-1.1107628173828126	-0.13119700622558594	0		-1.0471573486328125	-2.42892626953125	0		1.3074683837890626	-0.7347979125976563	0		3.098877197265625	-0.2912389221191406	0		4.39101318359375	-0.12486971282958985	0		5.6506259765625	0.08090505981445313	0		-0.1626656951904297	5.92684912109375	0		
0.005820013046264648	-0.004668103218078613	0		0.37602593994140626	-2.34538720703125	0		-1.119530029296875	-0.13770722961425783	0		-1.051890625	-2.432475341796875	0		1.2837811279296876	-0.7331571655273438	0		3.13918603515625	-0.2902181396484375	0		4.3872548828125	-0.13041746520996095	0		5.64992626953125	0.08133088684082031	0		-0.16238771057128906	5.9262529296875	0		
0.005237696170806885	-0.004339185237884522	0		0.35436865234375	-2.352852783203125	0		-1.14812060546875	-0.1381063690185547	0		-1.08943017578125	-2.427787109375	0		1.3121298828125	-0.7401094360351562	0		3.110546630859375	-0.2956134033203125	0		4.38667236328125	-0.13008497619628906	0		5.64527587890625	0.0747039337158203	0		-0.17806207275390626	5.91772802734375	0		
0.031770599365234374	-0.004357118129730225	0		0.35794064331054687	-2.34864697265625	0		-1.1006082763671876	-0.140328369140625	0		-1.1169249267578125	-2.430278076171875	0		1.29171337890625	-0.7346701049804687	0		3.13221630859375	-0.28158456420898437	0		4.38926513671875	-0.12387106323242188	0		5.6547802734375	0.07184944915771484	0		-0.16343841552734376	5.92682666015625	0		
0.011486476898193359	0.0030010430812835694	0		0.35961260986328125	-2.345503662109375	0		-1.188850341796875	-0.12830575561523438	0		-1.0482366943359376	-2.425785400390625	0		1.29135888671875	-0.7345086669921875	0		3.107843994140625	-0.28319210815429685	0		4.38891162109375	-0.12371436309814453	0		5.64852490234375	0.08206173706054687	0		-0.1637819366455078	5.92699072265625	0		
0.007208422183990478	1.24890998005867E-4	0		0.3484062805175781	-2.34031298828125	0		-1.121180908203125	-0.13688026428222655	0		-1.08849072265625	-2.425307861328125	0		1.2821278076171876	-0.7323399047851562	0		3.1405830078125	-0.28443780517578127	0		4.3886630859375	-0.12364138793945313	0		5.64827587890625	0.08213060760498046	0		-0.1640142822265625	5.927076171875	0		
-0.022975601196289063	-0.002573719024658203	0		0.3462215576171875	-2.342285888671875	0		-1.12536669921875	-0.13982806396484376	0		-1.06060888671875	-2.420568115234375	0		1.3049578857421875	-0.7335604858398438	0		3.1164169921875	-0.2852072448730469	0		4.37952685546875	-0.12156137084960937	0		5.6481201171875	0.08211724853515626	0		-0.16414735412597656	5.92708544921875	0		
0.003937973976135254	-0.0039015450477600097	0		0.3530367126464844	-2.352419921875	0		-1.1634312744140625	-0.13851625061035155	0		-1.12973193359375	-2.423953857421875	0		1.2878309326171875	-0.73846533203125	0		3.1073603515625	-0.28319940185546877	0		4.383509765625	-0.11568582153320313	0		5.64804541015625	0.08202487945556641	0		-0.1641934814453125	5.927021484375	0		
-0.020026790618896485	1.982160061597824E-4	0		0.35908599853515627	-2.345615478515625	0		-1.14347705078125	-0.1428388671875	0		-1.0487647705078125	-2.42587255859375	0		1.2967918701171874	-0.7416950073242188	0		3.113284912109375	-0.2904103393554687	0		4.3853681640625	-0.12986370849609374	0		5.65394287109375	0.07179911804199218	0		-0.198230224609375	5.920220703125	0		
0.014087291717529296	0.00566536283493042	0		0.3611467895507813	-2.343837890625	0		-1.107344482421875	-0.1353838195800781	0		-1.121642333984375	-2.41735302734375	0		1.296843994140625	-0.7419041748046875	0		3.15155322265625	-0.2690040283203125	0		4.38762109375	-0.11011274719238281	0		5.662146484375	0.08648183441162109	0		-0.14798927307128906	5.9345322265625	0		
-0.01985759735107422	-2.6493099331855775E-4	0		0.3571931457519531	-2.349064208984375	0		-1.050294677734375	-0.14219578552246093	0		-1.0496490478515625	-2.428311279296875	0		1.28798046875	-0.7390886840820312	0		3.107518798828125	-0.28385894775390624	0		4.39261572265625	-0.12245449066162109	0		5.6482109375	0.08131481170654296	0		-0.1639114227294922	5.92642724609375	0		
0.007302278995513916	-8.511919975280761E-4	0		0.34639572143554687	-2.34328173828125	0		-1.1251212158203125	-0.14077610778808594	0		-1.060437255859375	-2.421518310546875	0		1.288135986328125	-0.739420654296875	0		3.10175634765625	-0.2761463928222656	0		4.37977783203125	-0.1226812744140625	0		5.648373046875	0.08094976806640625	0		-0.16469546508789062	5.92711572265625	0		
-0.022520233154296875	-0.003935753107070923	0		0.35550445556640625	-2.35175048828125	0		-1.1249168701171874	-0.14114596557617187	0		-1.0602503662109375	-2.421888671875	0		1.285306640625	-0.7427794189453125	0		3.103832275390625	-0.28956753540039065	0		4.37506201171875	-0.11504310607910156	0		5.6445107421875	0.07356763458251953	0		-0.1634545440673828	5.92572900390625	0		
0.004715227127075196	-0.005631552219390869	0		0.35775299072265626	-2.350204345703125	0		-1.1586304931640625	-0.1372359161376953	0		-1.1250186767578125	-2.421675048828125	0		1.288576904296875	-0.74025	0		3.093234130859375	-0.2739150390625	0		4.38022998046875	-0.12355427551269531	0		5.65289453125	0.0870150375366211	0		-0.16316372680664062	5.925298828125	0		
0.015098849296569824	0.003789583921432495	0		0.3501307678222656	-2.339609130859375	0		-1.1163179931640625	-0.13512010192871093	0		-1.0536942138671874	-2.416843994140625	0		1.2888577880859375	-0.7407393188476562	0		3.10840966796875	-0.2855636901855469	0		4.3845751953125	-0.118103515625	0		5.65318115234375	0.08649493408203125	0		-0.1487189025878906	5.936681640625	0		
0.0024821169376373292	0.009392091751098633	0		0.34739056396484375	-2.3451064453125	0		-1.1240634765625	-0.14255877685546875	0		-1.0574251708984375	-2.421322509765625	0		1.2861474609375	-0.7442427368164063	0		3.13275	-0.284343994140625	0		4.370998046875	-0.10851815795898437	0		5.64943701171875	0.07897353363037109	0		-0.16247413635253907	5.9242958984375	0		
